<svg width="24" height="24" viewBox="0 0 24 24" fill="none" xmlns="http://www.w3.org/2000/svg">
<g id="social-media-16 1" clip-path="url(#clip0_2001_520)">
<path id="Vector" fill-rule="evenodd" clip-rule="evenodd" d="M7.5 3H16.504C18.987 3 21 5.013 21 7.496V16.505C21 18.987 18.987 21 16.504 21H7.496C5.013 21 3 18.987 3 16.504V7.5C3 5.015 5.015 3 7.5 3V3Z" stroke="white" stroke-width="1.5" stroke-linecap="round" stroke-linejoin="round"/>
<path id="Vector_2" d="M8.12012 11.1001V16.5001" stroke="white" stroke-width="1.5" stroke-linecap="round" stroke-linejoin="round"/>
<g id="Group">
<path id="Vector_3" d="M11.719 16.5001V13.3501C11.719 12.1071 12.726 11.1001 13.969 11.1001C15.212 11.1001 16.219 12.1071 16.219 13.3501V16.5001" stroke="white" stroke-width="1.5" stroke-linecap="round" stroke-linejoin="round"/>
<path id="Vector_4" d="M8.11805 7.83789C7.99405 7.83789 7.89305 7.93889 7.89405 8.06289C7.89405 8.18689 7.99505 8.28789 8.11905 8.28789C8.24305 8.28789 8.34405 8.18689 8.34405 8.06289C8.34405 7.93789 8.24305 7.83789 8.11805 7.83789" stroke="white" stroke-width="1.5" stroke-linecap="round" stroke-linejoin="round"/>
</g>
</g>
<defs>
<clipPath id="clip0_2001_520">
<rect width="24" height="24" fill="white"/>
</clipPath>
</defs>
</svg>
